<?xml version="1.0" encoding="UTF-8" standalone="no"?>
<!-- Created with Inkscape (http://www.inkscape.org/) -->

<svg
   xmlns:dc="http://purl.org/dc/elements/1.1/"
   xmlns:cc="http://creativecommons.org/ns#"
   xmlns:rdf="http://www.w3.org/1999/02/22-rdf-syntax-ns#"
   xmlns:svg="http://www.w3.org/2000/svg"
   xmlns="http://www.w3.org/2000/svg"
   xmlns:sodipodi="http://sodipodi.sourceforge.net/DTD/sodipodi-0.dtd"
   xmlns:inkscape="http://www.inkscape.org/namespaces/inkscape"
   width="210mm"
   height="297mm"
   viewBox="0 0 210 297"
   version="1.1"
   id="svg307"
   inkscape:version="0.92.4 (5da689c313, 2019-01-14)"
   sodipodi:docname="doc-com logo skeleton.svg">
  <defs
     id="defs301" />
  <sodipodi:namedview
     id="base"
     pagecolor="#ffffff"
     bordercolor="#666666"
     borderopacity="1.0"
     inkscape:pageopacity="0.0"
     inkscape:pageshadow="2"
     inkscape:zoom="0.35"
     inkscape:cx="-155.71429"
     inkscape:cy="560"
     inkscape:document-units="mm"
     inkscape:current-layer="layer1"
     showgrid="false"
     inkscape:window-width="1920"
     inkscape:window-height="1046"
     inkscape:window-x="-11"
     inkscape:window-y="-11"
     inkscape:window-maximized="1" />
  <metadata
     id="metadata304">
    <rdf:RDF>
      <cc:Work
         rdf:about="">
        <dc:format>image/svg+xml</dc:format>
        <dc:type
           rdf:resource="http://purl.org/dc/dcmitype/StillImage" />
        <dc:title></dc:title>
      </cc:Work>
    </rdf:RDF>
  </metadata>
  <g
     inkscape:label="Layer 1"
     inkscape:groupmode="layer"
     id="layer1">
    <g
       transform="matrix(0.35277777,0,0,-0.35277777,62.614913,137.60862)"
       id="g128">
      <path
         inkscape:connector-curvature="0"
         id="path130"
         style="fill:#459d45;fill-opacity:1;fill-rule:nonzero;stroke:none"
         d="m 0,0 c 0.297,-9.36 2.008,-18.028 5.203,-25.917 h -6.815 v 0.098 h -11.029 c -0.692,2.136 -1.301,4.299 -1.838,6.519 -1.513,6.249 -2.22,12.626 -2.121,19.3 z" />
    </g>
    <g
       transform="matrix(0.35277777,0,0,-0.35277777,103.1429,160.8131)"
       id="g132">
      <path
         inkscape:connector-curvature="0"
         id="path134"
         style="fill:#459d45;fill-opacity:1;fill-rule:nonzero;stroke:none"
         d="m 0,0 c 1.541,-1.032 3.082,-2.078 4.709,-3.054 -8.894,-6.547 -19.669,-11.764 -32.521,-14.776 -0.438,-6.263 -2.545,-11.947 -6.307,-17.052 -3.972,-5.401 -9.741,-7.791 -15.482,-6.122 -3.507,1.018 -6.122,3.393 -8.286,6.249 -3.45,4.582 -5.542,9.743 -6.051,15.469 -0.114,1.301 -0.721,1.739 -1.895,2.008 -10.986,2.601 -20.969,7.183 -29.947,13.673 1.555,0.763 3.11,1.626 4.581,2.686 3.195,2.29 6.504,4.878 9.304,8.229 12.131,-7.649 25.705,-10.901 40.325,-10.011 11.75,0.707 23.047,4.539 32.832,10.859 1.117,-1.286 2.276,-2.601 3.506,-3.973 0.99,-1.131 2.036,-2.05 3.097,-2.743 C -1.414,0.962 -0.707,0.481 0,0" />
    </g>
    <g
       transform="matrix(0.35277777,0,0,-0.35277777,115.70282,146.72683)"
       id="g136">
      <path
         inkscape:connector-curvature="0"
         id="path138"
         style="fill:#459d45;fill-opacity:1;fill-rule:nonzero;stroke:none"
         d="m 0,0 h -17.9 c 3.209,7.819 5.09,16.487 5.274,25.804 H 3.761 C 4.228,18.353 3.068,9.346 0,0" />
    </g>
    <g
       transform="matrix(0.35277777,0,0,-0.35277777,61.07853,116.6388)"
       id="g140">
      <path
         inkscape:connector-curvature="0"
         id="path142"
         style="fill:#459d45;fill-opacity:1;fill-rule:nonzero;stroke:none"
         d="M 0,0 C 0.113,-0.297 0.241,-0.594 0.353,-0.891 0.325,-17.194 0.339,-33.51 0.339,-49.813 v -2.05 H -8.13 v 1.923 c 0,12.414 -0.085,24.828 -0.085,37.243 0.764,1.711 1.527,3.407 2.234,5.132 0.693,1.697 1.343,3.394 1.98,5.105 0.494,1.315 0.989,2.644 1.512,3.945 0.312,0.763 0.637,1.513 0.976,2.262 C -1.004,2.503 -0.509,1.258 0,0" />
    </g>
    <g
       transform="matrix(0.35277777,0,0,-0.35277777,80.043157,101.62973)"
       id="g144">
      <path
         inkscape:connector-curvature="0"
         id="path146"
         style="fill:#459d45;fill-opacity:1;fill-rule:nonzero;stroke:none"
         d="m 0,0 c -0.127,-2.206 -1.626,-3.662 -3.789,-4.312 -4.44,-1.315 -8.965,-1.075 -13.376,-0.142 -4.199,0.891 -8.258,2.347 -12.4,3.492 -0.594,0.17 -1.358,0.213 -1.909,-0.014 -6.943,-2.799 -12.316,-6.928 -16.034,-12.4 -2.758,-0.042 -5.444,-0.269 -7.777,-0.466 -0.367,-0.029 -1.499,-0.17 -2.701,-0.721 4.073,8.865 11.284,15.722 21.393,20.643 0.495,0.24 1.145,0.452 1.372,0.863 1.979,3.789 5.599,5.259 9.304,6.518 6.73,2.29 13.658,3.365 20.77,2.248 C -1.951,15.214 -0.226,13.56 0.014,10.35 0.269,6.914 0.226,3.436 0,0" />
    </g>
    <g
       transform="matrix(0.35277777,0,0,-0.35277777,112.91944,106.39329)"
       id="g148">
      <path
         inkscape:connector-curvature="0"
         id="path150"
         style="fill:#459d45;fill-opacity:1;fill-rule:nonzero;stroke:none"
         d="m 0,0 c -2.234,0.028 -4.454,0.057 -6.688,0.071 -2.29,3.28 -5.246,6.207 -8.879,8.78 -2.234,1.584 -4.879,2.602 -7.381,3.761 -0.509,0.241 -1.329,0.071 -1.881,-0.169 -6.956,-3.083 -14.266,-4.327 -21.831,-3.974 -1.442,0.071 -2.912,0.481 -4.298,0.962 -2.333,0.82 -3.337,2.785 -3.408,5.062 -0.084,3.308 0,6.659 0.212,9.968 0.156,2.446 1.711,4.214 4.044,4.426 4.2,0.353 8.484,0.594 12.683,0.212 5.359,-0.481 10.534,-1.966 15.129,-4.991 0.552,-0.382 1.216,-0.75 1.556,-1.287 1.385,-2.248 3.577,-3.323 5.797,-4.539 C -6.603,13.729 -0.551,7.55 3.252,-0.212 2.489,-0.071 1.64,-0.014 0.651,0 Z" />
    </g>
    <g
       transform="matrix(0.35277777,0,0,-0.35277777,115.67287,134.3614)"
       id="g152">
      <path
         inkscape:connector-curvature="0"
         id="path154"
         style="fill:#459d45;fill-opacity:1;fill-rule:nonzero;stroke:none"
         d="m 0,0 c 0,-0.481 -0.056,-0.961 -0.085,-1.654 h -8.412 v 2.163 c 0,14.762 -0.029,29.523 0,44.299 0.65,1.484 1.3,2.983 1.922,4.482 0.594,1.47 1.174,2.955 1.739,4.44 0,0 0,-0.014 0.015,-0.014 0.933,-2.036 1.894,-4.143 2.757,-6.193 0.693,-1.669 1.372,-3.337 2.05,-5.006 C 0,28.35 0,14.168 0,0" />
    </g>
    <g
       transform="matrix(0.35277777,0,0,-0.35277777,145.8656,145.46981)"
       id="g156">
      <path
         inkscape:connector-curvature="0"
         id="path158"
         style="fill:#459d45;fill-opacity:1;fill-rule:nonzero;stroke:none"
         d="m 0,0 c 3.224,-0.99 6.49,-1.88 9.756,-2.785 -2.799,-3.945 -4.892,-8.399 -6.08,-13.192 -0.678,0.226 -1.343,0.41 -2.007,0.551 -0.057,-0.127 -0.114,-0.269 -0.184,-0.396 -3.45,1.513 -6.872,2.927 -10.902,3.04 -0.381,0.014 -0.721,-0.042 -1.004,-0.17 -10.364,2.545 -22.594,-3.04 -30.965,-15.694 -9.205,-13.942 -11.467,-29.948 -14.139,-45.996 -2.673,-16.147 -4.992,-32.633 -10.322,-47.989 -10.364,-29.905 -34.571,-39.208 -62.737,-36.381 -27.783,2.8 -42.347,19.414 -44.27,47.565 -0.424,6.264 0.141,12.584 -0.17,18.848 4.681,0.467 9.333,0.679 13.97,0.566 -2.064,-15.073 -1.343,-29.877 8.682,-42.348 9.869,-12.273 24.023,-12.358 38.219,-10.435 21.506,2.913 32.336,17.18 36.748,36.664 3.817,16.91 5.557,34.26 8.795,51.312 3.195,16.797 8.624,32.761 21.308,45.133 11.028,10.76 24.305,15.002 39.434,12.188 C -3.747,0.085 -1.81,-0.113 0,0" />
    </g>
    <g
       transform="matrix(0.35277777,0,0,-0.35277777,161.61998,164.23008)"
       id="g160">
      <path
         inkscape:connector-curvature="0"
         id="path162"
         style="fill:#459d45;fill-opacity:1;fill-rule:nonzero;stroke:none"
         d="M 0,0 C -14.592,0.339 -26.483,12.316 -26.596,27.614 -26.695,43.026 -14.139,55.271 1.513,55.172 16.585,55.087 28.759,42.687 28.689,27.515 28.618,11.821 16.175,-0.396 0,0 M 1.145,67.289 C -20.615,67.275 -38.558,49.502 -38.586,27.954 -38.615,5.783 -20.997,-11.99 1.018,-12.004 c 21.93,-0.014 39.746,17.759 39.746,39.661 0,21.718 -17.929,39.647 -39.619,39.632" />
    </g>
    <g
       transform="matrix(0.35277777,0,0,-0.35277777,156.22982,154.5162)"
       id="g164">
      <path
         inkscape:connector-curvature="0"
         id="path166"
         style="fill:#459d45;fill-opacity:1;fill-rule:nonzero;stroke:none"
         d="M 0,0 C -0.036,9.064 7.119,16.436 15.997,16.482 25.39,16.532 32.654,9.405 32.739,0.155 32.823,-9.036 25.502,-16.309 16.158,-16.371 7.283,-16.43 0.036,-9.001 0,0" />
    </g>
    <g
       transform="matrix(0.35277777,0,0,-0.35277777,128.68677,148.20328)"
       id="g168">
      <path
         inkscape:connector-curvature="0"
         id="path170"
         style="fill:#253a7c;fill-opacity:1;fill-rule:nonzero;stroke:none"
         d="m 0,0 c -4.355,-0.028 -8.696,-0.071 -13.051,-0.071 -12.994,0 -25.988,0.014 -38.982,0.014 -8.696,0 -17.391,-0.042 -26.087,-0.042 -1.81,0 -3.606,0.028 -5.415,0.085 -1.655,0.042 -1.966,0.735 -1.245,2.206 0.863,1.767 1.584,3.605 2.361,5.415 0.806,1.895 1.613,3.789 2.404,5.684 1.852,4.426 3.691,8.851 5.557,13.263 0.679,1.612 1.527,3.153 2.191,4.765 1.33,3.28 2.574,6.589 3.889,9.869 0.438,1.075 1.004,2.079 1.47,3.139 2.037,4.68 4.073,9.36 6.08,14.069 1.018,2.403 1.938,4.878 2.97,7.296 1.23,2.912 2.531,5.797 3.775,8.709 0.877,2.079 1.682,4.186 2.573,6.264 1.358,3.168 2.814,6.292 4.115,9.474 1.343,3.28 2.545,6.617 3.86,9.911 0.424,1.075 1.046,2.065 1.739,3.436 0.99,-2.22 1.753,-3.959 2.545,-5.712 1.4,-3.125 2.87,-6.221 4.199,-9.375 1.81,-4.284 3.507,-8.61 5.246,-12.923 0.962,-2.39 1.74,-4.864 2.913,-7.14 1.965,-3.804 3.365,-7.819 4.991,-11.764 0.481,-1.188 1.216,-2.277 1.697,-3.464 1.64,-3.945 3.181,-7.933 4.836,-11.877 1.583,-3.719 3.336,-7.367 4.906,-11.1 1.386,-3.294 2.601,-6.674 3.945,-9.997 0.48,-1.201 1.103,-2.332 1.64,-3.506 1.272,-2.842 2.559,-5.67 3.761,-8.54 C -0.212,5.924 0.608,3.719 1.414,1.527 1.782,0.509 1.301,0 0,0 m -185.608,85.939 c 1.315,-3.096 2.744,-6.136 4.058,-9.233 0.778,-1.852 1.386,-3.775 2.107,-5.656 0.226,-0.593 0.58,-1.145 0.834,-1.725 1.57,-3.591 3.181,-7.154 4.68,-10.76 1.329,-3.153 2.503,-6.376 3.818,-9.53 0.806,-1.922 1.767,-3.761 2.602,-5.669 0.989,-2.234 1.951,-4.469 2.87,-6.731 1.287,-3.125 2.489,-6.278 3.775,-9.403 0.75,-1.795 1.64,-3.52 2.39,-5.302 1.272,-3.026 2.474,-6.08 3.718,-9.12 0.481,-1.145 0.962,-2.29 1.443,-3.436 1.088,-2.587 2.191,-5.175 3.252,-7.762 0.438,-1.046 0.014,-1.541 -1.315,-1.584 -2.687,-0.07 -5.359,-0.141 -8.046,-0.155 -11.24,-0.014 -22.481,0 -33.722,0 v 0.099 h -41.075 c -0.311,0 -0.651,0 -0.961,0.042 -1.301,0.128 -1.612,0.82 -1.089,1.994 1.47,3.308 2.87,6.645 4.298,9.982 0.792,1.853 1.612,3.705 2.39,5.585 0.749,1.796 1.428,3.634 2.191,5.43 1.075,2.531 2.249,5.019 3.309,7.55 1.527,3.648 2.984,7.339 4.496,11.001 0.453,1.103 0.99,2.163 1.471,3.252 2.432,5.571 4.892,11.142 7.268,16.741 1.71,4.03 3.294,8.102 5.005,12.146 1.386,3.294 2.927,6.532 4.298,9.841 1.23,2.969 2.277,6.009 3.479,8.992 0.749,1.881 1.64,3.719 2.431,5.585 0.354,0.834 0.623,1.711 0.948,2.559 0.141,0.382 0.254,0.821 0.509,1.117 0.311,0.368 0.777,0.609 1.173,0.905 0.269,-0.395 0.594,-0.763 0.792,-1.187 0.905,-1.952 1.81,-3.917 2.644,-5.896 1.344,-3.21 2.602,-6.462 3.959,-9.672 M 5.712,3.719 c -1.64,4.001 -3.294,8.003 -4.963,11.99 -0.438,1.06 -0.989,2.078 -1.413,3.153 -1.188,2.983 -2.277,6.009 -3.521,8.964 -2.446,5.812 -4.977,11.58 -7.48,17.363 -1.06,2.461 -2.135,4.907 -3.196,7.367 -1.003,2.319 -1.993,4.638 -2.954,6.985 -0.891,2.206 -1.712,4.454 -2.602,6.66 -0.75,1.838 -1.556,3.648 -2.333,5.472 -1.075,2.545 -2.107,5.104 -3.21,7.635 -1.753,4.044 -3.549,8.074 -5.33,12.117 -0.014,0.043 -0.029,0.085 -0.043,0.128 -1.258,3.252 -2.446,6.532 -3.789,9.742 -1.386,3.308 -2.969,6.532 -4.369,9.827 -1.216,2.842 -1.471,3.11 -4.596,3.153 -6.942,0.084 -13.87,0.155 -20.813,0.183 -15.624,0.043 -31.262,0.071 -46.886,0.029 -2.786,-0.015 -3.379,1.329 -2.502,4.029 0.183,0.538 0.749,0.934 1.032,1.457 0.551,1.018 1.414,2.078 1.456,3.139 0.184,4.949 0.198,9.897 0.127,14.846 -0.042,2.234 -3.181,5.274 -5.231,5.175 -2.602,-0.113 -6.363,-1.923 -6.519,-5.543 -0.014,-0.268 -0.071,-0.551 -0.084,-0.82 -0.015,-3.93 -0.071,-7.861 -0.015,-11.792 0.015,-1.767 0.354,-3.549 1.584,-4.92 1.046,-1.16 1.145,-2.461 1.004,-3.86 -0.156,-1.612 -0.651,-1.952 -2.276,-1.711 -0.453,0.07 -0.92,0.085 -1.372,0.085 -2.87,-0.029 -5.741,-0.114 -8.611,-0.114 -17.066,-0.014 -34.133,0.014 -51.199,-0.042 -2.799,0 -5.613,-0.212 -8.413,-0.467 -0.707,-0.056 -1.753,-0.424 -2.008,-0.961 -1.159,-2.446 -2.106,-4.991 -3.11,-7.508 -1.414,-3.535 -2.786,-7.084 -4.242,-10.605 -1.004,-2.46 -2.107,-4.864 -3.195,-7.296 -0.524,-1.173 -1.16,-2.304 -1.655,-3.492 -2.333,-5.684 -4.623,-11.396 -6.956,-17.08 -0.877,-2.135 -1.796,-4.242 -2.701,-6.363 -1.258,-2.969 -2.531,-5.925 -3.789,-8.88 -0.707,-1.654 -1.414,-3.308 -2.093,-4.962 -1.287,-3.154 -2.517,-6.321 -3.846,-9.46 -1.173,-2.743 -2.474,-5.429 -3.648,-8.172 -1.145,-2.659 -2.177,-5.359 -3.294,-8.032 -0.495,-1.187 -1.131,-2.318 -1.612,-3.506 -1.23,-3.012 -2.39,-6.052 -3.634,-9.049 -1.117,-2.673 -2.39,-5.303 -3.464,-7.989 -0.283,-0.721 -0.212,-1.626 -0.113,-2.418 0.155,-1.089 0.424,-2.177 0.763,-3.224 0.481,-1.541 1.004,-3.068 1.654,-4.524 0.184,-0.396 0.835,-0.693 1.316,-0.792 0.579,-0.127 1.201,0.014 1.795,0.014 26.695,0 53.391,-0.014 80.072,-0.028 2.262,0 4.538,0.084 6.801,-0.043 2.05,-0.113 2.587,0.142 3.238,2.15 0.523,1.611 0.735,3.407 1.597,4.821 1.287,2.121 1.245,3.959 -0.056,5.924 -0.198,0.311 -0.34,0.665 -0.481,1.004 -0.848,2.051 -1.683,4.129 -2.559,6.179 -1.315,3.04 -2.672,6.066 -3.959,9.12 -1.343,3.224 -2.63,6.462 -3.974,9.686 -0.494,1.187 -1.102,2.333 -1.597,3.52 -2.376,5.783 -4.709,11.566 -7.112,17.335 -2.249,5.401 -4.553,10.774 -6.872,16.147 -0.481,1.089 -1.258,2.051 -1.654,3.168 -1.457,4.157 -3.083,8.229 -5.034,12.188 -0.424,0.862 -0.806,1.753 -1.159,2.644 -1.669,4.1 -3.309,8.201 -4.992,12.301 -1.343,3.252 -2.728,6.49 -4.241,10.11 h 3.605 c 25.338,0 50.69,0.014 76.028,0.028 20.261,0.014 40.509,0.057 60.771,0.085 1.23,0 1.612,-0.382 1.202,-1.598 -0.623,-1.781 -1.386,-3.506 -2.079,-5.26 -0.467,-1.187 -0.891,-2.389 -1.4,-3.563 -0.834,-1.937 -1.795,-3.832 -2.601,-5.783 -1.287,-3.096 -2.418,-6.264 -3.733,-9.346 -1.655,-3.888 -3.492,-7.706 -5.133,-11.594 -2.347,-5.543 -4.567,-11.142 -6.843,-16.713 -1.089,-2.63 -2.178,-5.26 -3.309,-7.876 -2.078,-4.863 -4.171,-9.713 -6.264,-14.563 -1.23,-2.828 -2.488,-5.642 -3.718,-8.47 -0.566,-1.3 -1.145,-2.601 -1.655,-3.916 -0.579,-1.499 -1.018,-3.054 -1.654,-4.525 -1.513,-3.45 -3.139,-6.858 -4.666,-10.308 -0.664,-1.527 -1.174,-3.025 -0.41,-4.779 0.834,-1.937 1.329,-4.029 1.994,-6.037 0.452,-1.358 1.654,-2.192 2.912,-2.149 1.655,0.07 3.309,0.141 4.963,0.141 7.919,0 15.822,-0.028 23.726,-0.042 17.293,-0.015 34.585,-0.029 51.863,-0.043 2.023,2.772 4.327,5.444 6.929,7.989 1.513,1.47 3.068,2.842 4.666,4.072 -0.283,0.707 -0.58,1.4 -0.863,2.093" />
    </g>
    <g
       transform="matrix(0.35277777,0,0,-0.35277777,125.46947,154.11911)"
       id="g172">
      <path
         inkscape:connector-curvature="0"
         id="path174"
         style="fill:#253a7c;fill-opacity:1;fill-rule:nonzero;stroke:none"
         d="m 0,0 c -3.309,-5.783 -5.67,-11.778 -7.437,-17.589 -0.128,-0.085 -0.241,-0.156 -0.368,-0.227 -2.517,-1.498 -5.246,-2.644 -7.904,-3.916 -2.729,-1.315 -5.585,-2.135 -8.653,-2.149 -1.711,0 -3.408,-0.453 -5.105,-0.425 -4.468,0.085 -8.964,0.099 -13.404,0.58 -2.177,0.226 -4.256,1.414 -6.391,2.163 -0.084,0.043 -0.155,0.099 -0.24,0.128 -5.147,1.357 -9.261,4.595 -13.588,7.437 -0.834,0.551 -1.598,1.273 -2.262,2.022 -2.885,3.238 -5.727,6.504 -8.54,9.799 -0.354,0.424 -0.679,1.3 -0.467,1.654 0.24,0.41 1.06,0.664 1.64,0.679 3.705,0.028 7.395,-0.043 11.085,-0.057 h 28.576 v -0.113 c 11.015,0 22.029,0 33.058,0.014" />
    </g>
    <g
       transform="matrix(0.35277777,0,0,-0.35277777,60.189989,162.73525)"
       id="g176">
      <path
         inkscape:connector-curvature="0"
         id="path178"
         style="fill:#253a7c;fill-opacity:1;fill-rule:nonzero;stroke:none"
         d="m 0,0 c -3.015,0.2 -6.23,0.177 -9.356,0.695 -2.602,0.432 -5.169,1.327 -7.623,2.33 -2.793,1.142 -5.546,2.463 -8.125,4.023 -2.189,1.325 -4.272,2.93 -6.106,4.715 -3.257,3.171 -6.297,6.566 -9.411,9.883 -0.615,0.655 -1.279,1.524 -0.514,2.299 0.462,0.467 1.44,0.558 2.192,0.576 1.75,0.043 3.505,-0.101 5.257,-0.099 17.241,0.014 34.482,0.054 51.723,0.06 6.835,0.003 13.671,-0.07 20.506,-0.086 0.828,-0.001 1.667,0.258 2.48,0.179 0.586,-0.057 1.262,-0.361 1.65,-0.783 0.181,-0.197 -0.095,-1.039 -0.389,-1.409 -1.635,-2.06 -3.393,-4.022 -5.008,-6.097 C 34.695,12.969 31.424,10.381 28.077,7.974 25.65,6.229 22.796,5.045 20.054,3.783 17.927,2.805 15.682,2.082 13.481,1.268 12.794,1.015 12.089,0.697 11.375,0.648 7.644,0.393 3.908,0.214 0,0" />
    </g>
  </g>
</svg>
